<?xml version="1.0" encoding="utf-8" standalone="no"?>
<!DOCTYPE svg PUBLIC "-//W3C//DTD SVG 1.1//EN"
  "http://www.w3.org/Graphics/SVG/1.1/DTD/svg11.dtd">
<svg height="576pt" version="1.1" viewBox="0 0 864 576" width="864pt" xmlns="http://www.w3.org/2000/svg" xmlns:xlink="http://www.w3.org/1999/xlink">
 <metadata>
  <rdf:RDF xmlns:cc="http://creativecommons.org/ns#" xmlns:dc="http://purl.org/dc/elements/1.1/" xmlns:rdf="http://www.w3.org/1999/02/22-rdf-syntax-ns#">
   <cc:Work>
    <dc:type rdf:resource="http://purl.org/dc/dcmitype/StillImage"/>
    <dc:date>2021-11-15T22:22:43.015240</dc:date>
    <dc:format>image/svg+xml</dc:format>
    <dc:creator>
     <cc:Agent>
      <dc:title>Matplotlib v3.4.3, https://matplotlib.org/</dc:title>
     </cc:Agent>
    </dc:creator>
   </cc:Work>
  </rdf:RDF>
 </metadata>
 <defs>
  <style type="text/css">*{stroke-linecap:butt;stroke-linejoin:round;}</style>
 </defs>
 <g id="figure_1">
  <g id="patch_1">
   <path d="M 0 576 
L 864 576 
L 864 0 
L 0 0 
z
" style="fill:none;"/>
  </g>
  <g id="axes_1">
   <g id="patch_2">
    <path d="M 108 504 
L 777.6 504 
L 777.6 69.12 
L 108 69.12 
z
" style="fill:#ffffff;"/>
   </g>
   <g id="line2d_1">
    <path clip-path="url(#p3c07c2d6d5)" d="M 178.9574 472.104153 
L 178.9574 101.666773 
" style="fill:none;stroke:#000000;stroke-dasharray:5.55,2.4;stroke-dashoffset:0;stroke-width:1.5;"/>
   </g>
   <g id="matplotlib.axis_1">
    <g id="xtick_1">
     <g id="line2d_2">
      <defs>
       <path d="M 0 0 
L 0 3.5 
" id="m445fce75f4" style="stroke:#000000;stroke-width:0.8;"/>
      </defs>
      <g>
       <use style="stroke:#000000;stroke-width:0.8;" x="138.436364" xlink:href="#m445fce75f4" y="504"/>
      </g>
     </g>
     <g id="text_1">
      <!-- 0.0 -->
      <g transform="translate(130.484801 518.598438)scale(0.1 -0.1)">
       <defs>
        <path d="M 2034 4250 
Q 1547 4250 1301 3770 
Q 1056 3291 1056 2328 
Q 1056 1369 1301 889 
Q 1547 409 2034 409 
Q 2525 409 2770 889 
Q 3016 1369 3016 2328 
Q 3016 3291 2770 3770 
Q 2525 4250 2034 4250 
z
M 2034 4750 
Q 2819 4750 3233 4129 
Q 3647 3509 3647 2328 
Q 3647 1150 3233 529 
Q 2819 -91 2034 -91 
Q 1250 -91 836 529 
Q 422 1150 422 2328 
Q 422 3509 836 4129 
Q 1250 4750 2034 4750 
z
" id="DejaVuSans-30" transform="scale(0.015625)"/>
        <path d="M 684 794 
L 1344 794 
L 1344 0 
L 684 0 
L 684 794 
z
" id="DejaVuSans-2e" transform="scale(0.015625)"/>
       </defs>
       <use xlink:href="#DejaVuSans-30"/>
       <use x="63.623047" xlink:href="#DejaVuSans-2e"/>
       <use x="95.410156" xlink:href="#DejaVuSans-30"/>
      </g>
     </g>
    </g>
    <g id="xtick_2">
     <g id="line2d_3">
      <g>
       <use style="stroke:#000000;stroke-width:0.8;" x="214.413307" xlink:href="#m445fce75f4" y="504"/>
      </g>
     </g>
     <g id="text_2">
      <!-- 2.5 -->
      <g transform="translate(206.461745 518.598438)scale(0.1 -0.1)">
       <defs>
        <path d="M 1228 531 
L 3431 531 
L 3431 0 
L 469 0 
L 469 531 
Q 828 903 1448 1529 
Q 2069 2156 2228 2338 
Q 2531 2678 2651 2914 
Q 2772 3150 2772 3378 
Q 2772 3750 2511 3984 
Q 2250 4219 1831 4219 
Q 1534 4219 1204 4116 
Q 875 4013 500 3803 
L 500 4441 
Q 881 4594 1212 4672 
Q 1544 4750 1819 4750 
Q 2544 4750 2975 4387 
Q 3406 4025 3406 3419 
Q 3406 3131 3298 2873 
Q 3191 2616 2906 2266 
Q 2828 2175 2409 1742 
Q 1991 1309 1228 531 
z
" id="DejaVuSans-32" transform="scale(0.015625)"/>
        <path d="M 691 4666 
L 3169 4666 
L 3169 4134 
L 1269 4134 
L 1269 2991 
Q 1406 3038 1543 3061 
Q 1681 3084 1819 3084 
Q 2600 3084 3056 2656 
Q 3513 2228 3513 1497 
Q 3513 744 3044 326 
Q 2575 -91 1722 -91 
Q 1428 -91 1123 -41 
Q 819 9 494 109 
L 494 744 
Q 775 591 1075 516 
Q 1375 441 1709 441 
Q 2250 441 2565 725 
Q 2881 1009 2881 1497 
Q 2881 1984 2565 2268 
Q 2250 2553 1709 2553 
Q 1456 2553 1204 2497 
Q 953 2441 691 2322 
L 691 4666 
z
" id="DejaVuSans-35" transform="scale(0.015625)"/>
       </defs>
       <use xlink:href="#DejaVuSans-32"/>
       <use x="63.623047" xlink:href="#DejaVuSans-2e"/>
       <use x="95.410156" xlink:href="#DejaVuSans-35"/>
      </g>
     </g>
    </g>
    <g id="xtick_3">
     <g id="line2d_4">
      <g>
       <use style="stroke:#000000;stroke-width:0.8;" x="290.390251" xlink:href="#m445fce75f4" y="504"/>
      </g>
     </g>
     <g id="text_3">
      <!-- 5.0 -->
      <g transform="translate(282.438688 518.598438)scale(0.1 -0.1)">
       <use xlink:href="#DejaVuSans-35"/>
       <use x="63.623047" xlink:href="#DejaVuSans-2e"/>
       <use x="95.410156" xlink:href="#DejaVuSans-30"/>
      </g>
     </g>
    </g>
    <g id="xtick_4">
     <g id="line2d_5">
      <g>
       <use style="stroke:#000000;stroke-width:0.8;" x="366.367195" xlink:href="#m445fce75f4" y="504"/>
      </g>
     </g>
     <g id="text_4">
      <!-- 7.5 -->
      <g transform="translate(358.415632 518.598438)scale(0.1 -0.1)">
       <defs>
        <path d="M 525 4666 
L 3525 4666 
L 3525 4397 
L 1831 0 
L 1172 0 
L 2766 4134 
L 525 4134 
L 525 4666 
z
" id="DejaVuSans-37" transform="scale(0.015625)"/>
       </defs>
       <use xlink:href="#DejaVuSans-37"/>
       <use x="63.623047" xlink:href="#DejaVuSans-2e"/>
       <use x="95.410156" xlink:href="#DejaVuSans-35"/>
      </g>
     </g>
    </g>
    <g id="xtick_5">
     <g id="line2d_6">
      <g>
       <use style="stroke:#000000;stroke-width:0.8;" x="442.344138" xlink:href="#m445fce75f4" y="504"/>
      </g>
     </g>
     <g id="text_5">
      <!-- 10.0 -->
      <g transform="translate(431.211326 518.598438)scale(0.1 -0.1)">
       <defs>
        <path d="M 794 531 
L 1825 531 
L 1825 4091 
L 703 3866 
L 703 4441 
L 1819 4666 
L 2450 4666 
L 2450 531 
L 3481 531 
L 3481 0 
L 794 0 
L 794 531 
z
" id="DejaVuSans-31" transform="scale(0.015625)"/>
       </defs>
       <use xlink:href="#DejaVuSans-31"/>
       <use x="63.623047" xlink:href="#DejaVuSans-30"/>
       <use x="127.246094" xlink:href="#DejaVuSans-2e"/>
       <use x="159.033203" xlink:href="#DejaVuSans-30"/>
      </g>
     </g>
    </g>
    <g id="xtick_6">
     <g id="line2d_7">
      <g>
       <use style="stroke:#000000;stroke-width:0.8;" x="518.321082" xlink:href="#m445fce75f4" y="504"/>
      </g>
     </g>
     <g id="text_6">
      <!-- 12.5 -->
      <g transform="translate(507.18827 518.598438)scale(0.1 -0.1)">
       <use xlink:href="#DejaVuSans-31"/>
       <use x="63.623047" xlink:href="#DejaVuSans-32"/>
       <use x="127.246094" xlink:href="#DejaVuSans-2e"/>
       <use x="159.033203" xlink:href="#DejaVuSans-35"/>
      </g>
     </g>
    </g>
    <g id="xtick_7">
     <g id="line2d_8">
      <g>
       <use style="stroke:#000000;stroke-width:0.8;" x="594.298026" xlink:href="#m445fce75f4" y="504"/>
      </g>
     </g>
     <g id="text_7">
      <!-- 15.0 -->
      <g transform="translate(583.165213 518.598438)scale(0.1 -0.1)">
       <use xlink:href="#DejaVuSans-31"/>
       <use x="63.623047" xlink:href="#DejaVuSans-35"/>
       <use x="127.246094" xlink:href="#DejaVuSans-2e"/>
       <use x="159.033203" xlink:href="#DejaVuSans-30"/>
      </g>
     </g>
    </g>
    <g id="xtick_8">
     <g id="line2d_9">
      <g>
       <use style="stroke:#000000;stroke-width:0.8;" x="670.274969" xlink:href="#m445fce75f4" y="504"/>
      </g>
     </g>
     <g id="text_8">
      <!-- 17.5 -->
      <g transform="translate(659.142157 518.598438)scale(0.1 -0.1)">
       <use xlink:href="#DejaVuSans-31"/>
       <use x="63.623047" xlink:href="#DejaVuSans-37"/>
       <use x="127.246094" xlink:href="#DejaVuSans-2e"/>
       <use x="159.033203" xlink:href="#DejaVuSans-35"/>
      </g>
     </g>
    </g>
    <g id="xtick_9">
     <g id="line2d_10">
      <g>
       <use style="stroke:#000000;stroke-width:0.8;" x="746.251913" xlink:href="#m445fce75f4" y="504"/>
      </g>
     </g>
     <g id="text_9">
      <!-- 20.0 -->
      <g transform="translate(735.119101 518.598438)scale(0.1 -0.1)">
       <use xlink:href="#DejaVuSans-32"/>
       <use x="63.623047" xlink:href="#DejaVuSans-30"/>
       <use x="127.246094" xlink:href="#DejaVuSans-2e"/>
       <use x="159.033203" xlink:href="#DejaVuSans-30"/>
      </g>
     </g>
    </g>
    <g id="text_10">
     <!-- Time into experiment (hrs) -->
     <g transform="translate(375.771875 532.276562)scale(0.1 -0.1)">
      <defs>
       <path d="M -19 4666 
L 3928 4666 
L 3928 4134 
L 2272 4134 
L 2272 0 
L 1638 0 
L 1638 4134 
L -19 4134 
L -19 4666 
z
" id="DejaVuSans-54" transform="scale(0.015625)"/>
       <path d="M 603 3500 
L 1178 3500 
L 1178 0 
L 603 0 
L 603 3500 
z
M 603 4863 
L 1178 4863 
L 1178 4134 
L 603 4134 
L 603 4863 
z
" id="DejaVuSans-69" transform="scale(0.015625)"/>
       <path d="M 3328 2828 
Q 3544 3216 3844 3400 
Q 4144 3584 4550 3584 
Q 5097 3584 5394 3201 
Q 5691 2819 5691 2113 
L 5691 0 
L 5113 0 
L 5113 2094 
Q 5113 2597 4934 2840 
Q 4756 3084 4391 3084 
Q 3944 3084 3684 2787 
Q 3425 2491 3425 1978 
L 3425 0 
L 2847 0 
L 2847 2094 
Q 2847 2600 2669 2842 
Q 2491 3084 2119 3084 
Q 1678 3084 1418 2786 
Q 1159 2488 1159 1978 
L 1159 0 
L 581 0 
L 581 3500 
L 1159 3500 
L 1159 2956 
Q 1356 3278 1631 3431 
Q 1906 3584 2284 3584 
Q 2666 3584 2933 3390 
Q 3200 3197 3328 2828 
z
" id="DejaVuSans-6d" transform="scale(0.015625)"/>
       <path d="M 3597 1894 
L 3597 1613 
L 953 1613 
Q 991 1019 1311 708 
Q 1631 397 2203 397 
Q 2534 397 2845 478 
Q 3156 559 3463 722 
L 3463 178 
Q 3153 47 2828 -22 
Q 2503 -91 2169 -91 
Q 1331 -91 842 396 
Q 353 884 353 1716 
Q 353 2575 817 3079 
Q 1281 3584 2069 3584 
Q 2775 3584 3186 3129 
Q 3597 2675 3597 1894 
z
M 3022 2063 
Q 3016 2534 2758 2815 
Q 2500 3097 2075 3097 
Q 1594 3097 1305 2825 
Q 1016 2553 972 2059 
L 3022 2063 
z
" id="DejaVuSans-65" transform="scale(0.015625)"/>
       <path id="DejaVuSans-20" transform="scale(0.015625)"/>
       <path d="M 3513 2113 
L 3513 0 
L 2938 0 
L 2938 2094 
Q 2938 2591 2744 2837 
Q 2550 3084 2163 3084 
Q 1697 3084 1428 2787 
Q 1159 2491 1159 1978 
L 1159 0 
L 581 0 
L 581 3500 
L 1159 3500 
L 1159 2956 
Q 1366 3272 1645 3428 
Q 1925 3584 2291 3584 
Q 2894 3584 3203 3211 
Q 3513 2838 3513 2113 
z
" id="DejaVuSans-6e" transform="scale(0.015625)"/>
       <path d="M 1172 4494 
L 1172 3500 
L 2356 3500 
L 2356 3053 
L 1172 3053 
L 1172 1153 
Q 1172 725 1289 603 
Q 1406 481 1766 481 
L 2356 481 
L 2356 0 
L 1766 0 
Q 1100 0 847 248 
Q 594 497 594 1153 
L 594 3053 
L 172 3053 
L 172 3500 
L 594 3500 
L 594 4494 
L 1172 4494 
z
" id="DejaVuSans-74" transform="scale(0.015625)"/>
       <path d="M 1959 3097 
Q 1497 3097 1228 2736 
Q 959 2375 959 1747 
Q 959 1119 1226 758 
Q 1494 397 1959 397 
Q 2419 397 2687 759 
Q 2956 1122 2956 1747 
Q 2956 2369 2687 2733 
Q 2419 3097 1959 3097 
z
M 1959 3584 
Q 2709 3584 3137 3096 
Q 3566 2609 3566 1747 
Q 3566 888 3137 398 
Q 2709 -91 1959 -91 
Q 1206 -91 779 398 
Q 353 888 353 1747 
Q 353 2609 779 3096 
Q 1206 3584 1959 3584 
z
" id="DejaVuSans-6f" transform="scale(0.015625)"/>
       <path d="M 3513 3500 
L 2247 1797 
L 3578 0 
L 2900 0 
L 1881 1375 
L 863 0 
L 184 0 
L 1544 1831 
L 300 3500 
L 978 3500 
L 1906 2253 
L 2834 3500 
L 3513 3500 
z
" id="DejaVuSans-78" transform="scale(0.015625)"/>
       <path d="M 1159 525 
L 1159 -1331 
L 581 -1331 
L 581 3500 
L 1159 3500 
L 1159 2969 
Q 1341 3281 1617 3432 
Q 1894 3584 2278 3584 
Q 2916 3584 3314 3078 
Q 3713 2572 3713 1747 
Q 3713 922 3314 415 
Q 2916 -91 2278 -91 
Q 1894 -91 1617 61 
Q 1341 213 1159 525 
z
M 3116 1747 
Q 3116 2381 2855 2742 
Q 2594 3103 2138 3103 
Q 1681 3103 1420 2742 
Q 1159 2381 1159 1747 
Q 1159 1113 1420 752 
Q 1681 391 2138 391 
Q 2594 391 2855 752 
Q 3116 1113 3116 1747 
z
" id="DejaVuSans-70" transform="scale(0.015625)"/>
       <path d="M 2631 2963 
Q 2534 3019 2420 3045 
Q 2306 3072 2169 3072 
Q 1681 3072 1420 2755 
Q 1159 2438 1159 1844 
L 1159 0 
L 581 0 
L 581 3500 
L 1159 3500 
L 1159 2956 
Q 1341 3275 1631 3429 
Q 1922 3584 2338 3584 
Q 2397 3584 2469 3576 
Q 2541 3569 2628 3553 
L 2631 2963 
z
" id="DejaVuSans-72" transform="scale(0.015625)"/>
       <path d="M 1984 4856 
Q 1566 4138 1362 3434 
Q 1159 2731 1159 2009 
Q 1159 1288 1364 580 
Q 1569 -128 1984 -844 
L 1484 -844 
Q 1016 -109 783 600 
Q 550 1309 550 2009 
Q 550 2706 781 3412 
Q 1013 4119 1484 4856 
L 1984 4856 
z
" id="DejaVuSans-28" transform="scale(0.015625)"/>
       <path d="M 3513 2113 
L 3513 0 
L 2938 0 
L 2938 2094 
Q 2938 2591 2744 2837 
Q 2550 3084 2163 3084 
Q 1697 3084 1428 2787 
Q 1159 2491 1159 1978 
L 1159 0 
L 581 0 
L 581 4863 
L 1159 4863 
L 1159 2956 
Q 1366 3272 1645 3428 
Q 1925 3584 2291 3584 
Q 2894 3584 3203 3211 
Q 3513 2838 3513 2113 
z
" id="DejaVuSans-68" transform="scale(0.015625)"/>
       <path d="M 2834 3397 
L 2834 2853 
Q 2591 2978 2328 3040 
Q 2066 3103 1784 3103 
Q 1356 3103 1142 2972 
Q 928 2841 928 2578 
Q 928 2378 1081 2264 
Q 1234 2150 1697 2047 
L 1894 2003 
Q 2506 1872 2764 1633 
Q 3022 1394 3022 966 
Q 3022 478 2636 193 
Q 2250 -91 1575 -91 
Q 1294 -91 989 -36 
Q 684 19 347 128 
L 347 722 
Q 666 556 975 473 
Q 1284 391 1588 391 
Q 1994 391 2212 530 
Q 2431 669 2431 922 
Q 2431 1156 2273 1281 
Q 2116 1406 1581 1522 
L 1381 1569 
Q 847 1681 609 1914 
Q 372 2147 372 2553 
Q 372 3047 722 3315 
Q 1072 3584 1716 3584 
Q 2034 3584 2315 3537 
Q 2597 3491 2834 3397 
z
" id="DejaVuSans-73" transform="scale(0.015625)"/>
       <path d="M 513 4856 
L 1013 4856 
Q 1481 4119 1714 3412 
Q 1947 2706 1947 2009 
Q 1947 1309 1714 600 
Q 1481 -109 1013 -844 
L 513 -844 
Q 928 -128 1133 580 
Q 1338 1288 1338 2009 
Q 1338 2731 1133 3434 
Q 928 4138 513 4856 
z
" id="DejaVuSans-29" transform="scale(0.015625)"/>
      </defs>
      <use xlink:href="#DejaVuSans-54"/>
      <use x="57.958984" xlink:href="#DejaVuSans-69"/>
      <use x="85.742188" xlink:href="#DejaVuSans-6d"/>
      <use x="183.154297" xlink:href="#DejaVuSans-65"/>
      <use x="244.677734" xlink:href="#DejaVuSans-20"/>
      <use x="276.464844" xlink:href="#DejaVuSans-69"/>
      <use x="304.248047" xlink:href="#DejaVuSans-6e"/>
      <use x="367.626953" xlink:href="#DejaVuSans-74"/>
      <use x="406.835938" xlink:href="#DejaVuSans-6f"/>
      <use x="468.017578" xlink:href="#DejaVuSans-20"/>
      <use x="499.804688" xlink:href="#DejaVuSans-65"/>
      <use x="559.578125" xlink:href="#DejaVuSans-78"/>
      <use x="618.757812" xlink:href="#DejaVuSans-70"/>
      <use x="682.234375" xlink:href="#DejaVuSans-65"/>
      <use x="743.757812" xlink:href="#DejaVuSans-72"/>
      <use x="784.871094" xlink:href="#DejaVuSans-69"/>
      <use x="812.654297" xlink:href="#DejaVuSans-6d"/>
      <use x="910.066406" xlink:href="#DejaVuSans-65"/>
      <use x="971.589844" xlink:href="#DejaVuSans-6e"/>
      <use x="1034.96875" xlink:href="#DejaVuSans-74"/>
      <use x="1074.177734" xlink:href="#DejaVuSans-20"/>
      <use x="1105.964844" xlink:href="#DejaVuSans-28"/>
      <use x="1144.978516" xlink:href="#DejaVuSans-68"/>
      <use x="1208.357422" xlink:href="#DejaVuSans-72"/>
      <use x="1249.470703" xlink:href="#DejaVuSans-73"/>
      <use x="1301.570312" xlink:href="#DejaVuSans-29"/>
     </g>
    </g>
   </g>
   <g id="matplotlib.axis_2">
    <g id="ytick_1">
     <g id="line2d_11">
      <defs>
       <path d="M 0 0 
L -3.5 0 
" id="ma03b996fee" style="stroke:#000000;stroke-width:0.8;"/>
      </defs>
      <g>
       <use style="stroke:#000000;stroke-width:0.8;" x="108" xlink:href="#ma03b996fee" y="497.089603"/>
      </g>
     </g>
     <g id="text_11">
      <!-- $\mathdefault{10^{2}}$ -->
      <g transform="translate(83.4 500.888822)scale(0.1 -0.1)">
       <use transform="translate(0 0.765625)" xlink:href="#DejaVuSans-31"/>
       <use transform="translate(63.623047 0.765625)" xlink:href="#DejaVuSans-30"/>
       <use transform="translate(128.203125 39.046875)scale(0.7)" xlink:href="#DejaVuSans-32"/>
      </g>
     </g>
    </g>
    <g id="ytick_2">
     <g id="line2d_12">
      <g>
       <use style="stroke:#000000;stroke-width:0.8;" x="108" xlink:href="#ma03b996fee" y="210.25929"/>
      </g>
     </g>
     <g id="text_12">
      <!-- $\mathdefault{10^{3}}$ -->
      <g transform="translate(83.4 214.058508)scale(0.1 -0.1)">
       <defs>
        <path d="M 2597 2516 
Q 3050 2419 3304 2112 
Q 3559 1806 3559 1356 
Q 3559 666 3084 287 
Q 2609 -91 1734 -91 
Q 1441 -91 1130 -33 
Q 819 25 488 141 
L 488 750 
Q 750 597 1062 519 
Q 1375 441 1716 441 
Q 2309 441 2620 675 
Q 2931 909 2931 1356 
Q 2931 1769 2642 2001 
Q 2353 2234 1838 2234 
L 1294 2234 
L 1294 2753 
L 1863 2753 
Q 2328 2753 2575 2939 
Q 2822 3125 2822 3475 
Q 2822 3834 2567 4026 
Q 2313 4219 1838 4219 
Q 1578 4219 1281 4162 
Q 984 4106 628 3988 
L 628 4550 
Q 988 4650 1302 4700 
Q 1616 4750 1894 4750 
Q 2613 4750 3031 4423 
Q 3450 4097 3450 3541 
Q 3450 3153 3228 2886 
Q 3006 2619 2597 2516 
z
" id="DejaVuSans-33" transform="scale(0.015625)"/>
       </defs>
       <use transform="translate(0 0.765625)" xlink:href="#DejaVuSans-31"/>
       <use transform="translate(63.623047 0.765625)" xlink:href="#DejaVuSans-30"/>
       <use transform="translate(128.203125 39.046875)scale(0.7)" xlink:href="#DejaVuSans-33"/>
      </g>
     </g>
    </g>
    <g id="ytick_3">
     <g id="line2d_13">
      <defs>
       <path d="M 0 0 
L -2 0 
" id="mc72516c524" style="stroke:#000000;stroke-width:0.6;"/>
      </defs>
      <g>
       <use style="stroke:#000000;stroke-width:0.6;" x="108" xlink:href="#mc72516c524" y="410.745075"/>
      </g>
     </g>
    </g>
    <g id="ytick_4">
     <g id="line2d_14">
      <g>
       <use style="stroke:#000000;stroke-width:0.6;" x="108" xlink:href="#mc72516c524" y="360.236764"/>
      </g>
     </g>
    </g>
    <g id="ytick_5">
     <g id="line2d_15">
      <g>
       <use style="stroke:#000000;stroke-width:0.6;" x="108" xlink:href="#mc72516c524" y="324.400547"/>
      </g>
     </g>
    </g>
    <g id="ytick_6">
     <g id="line2d_16">
      <g>
       <use style="stroke:#000000;stroke-width:0.6;" x="108" xlink:href="#mc72516c524" y="296.603818"/>
      </g>
     </g>
    </g>
    <g id="ytick_7">
     <g id="line2d_17">
      <g>
       <use style="stroke:#000000;stroke-width:0.6;" x="108" xlink:href="#mc72516c524" y="273.892236"/>
      </g>
     </g>
    </g>
    <g id="ytick_8">
     <g id="line2d_18">
      <g>
       <use style="stroke:#000000;stroke-width:0.6;" x="108" xlink:href="#mc72516c524" y="254.689867"/>
      </g>
     </g>
    </g>
    <g id="ytick_9">
     <g id="line2d_19">
      <g>
       <use style="stroke:#000000;stroke-width:0.6;" x="108" xlink:href="#mc72516c524" y="238.056019"/>
      </g>
     </g>
    </g>
    <g id="ytick_10">
     <g id="line2d_20">
      <g>
       <use style="stroke:#000000;stroke-width:0.6;" x="108" xlink:href="#mc72516c524" y="223.383925"/>
      </g>
     </g>
    </g>
    <g id="ytick_11">
     <g id="line2d_21">
      <g>
       <use style="stroke:#000000;stroke-width:0.6;" x="108" xlink:href="#mc72516c524" y="123.914762"/>
      </g>
     </g>
    </g>
    <g id="ytick_12">
     <g id="line2d_22">
      <g>
       <use style="stroke:#000000;stroke-width:0.6;" x="108" xlink:href="#mc72516c524" y="73.406451"/>
      </g>
     </g>
    </g>
    <g id="text_13">
     <!-- log intensity value (a.u.) -->
     <g transform="translate(77.320312 347.596719)rotate(-90)scale(0.1 -0.1)">
      <defs>
       <path d="M 603 4863 
L 1178 4863 
L 1178 0 
L 603 0 
L 603 4863 
z
" id="DejaVuSans-6c" transform="scale(0.015625)"/>
       <path d="M 2906 1791 
Q 2906 2416 2648 2759 
Q 2391 3103 1925 3103 
Q 1463 3103 1205 2759 
Q 947 2416 947 1791 
Q 947 1169 1205 825 
Q 1463 481 1925 481 
Q 2391 481 2648 825 
Q 2906 1169 2906 1791 
z
M 3481 434 
Q 3481 -459 3084 -895 
Q 2688 -1331 1869 -1331 
Q 1566 -1331 1297 -1286 
Q 1028 -1241 775 -1147 
L 775 -588 
Q 1028 -725 1275 -790 
Q 1522 -856 1778 -856 
Q 2344 -856 2625 -561 
Q 2906 -266 2906 331 
L 2906 616 
Q 2728 306 2450 153 
Q 2172 0 1784 0 
Q 1141 0 747 490 
Q 353 981 353 1791 
Q 353 2603 747 3093 
Q 1141 3584 1784 3584 
Q 2172 3584 2450 3431 
Q 2728 3278 2906 2969 
L 2906 3500 
L 3481 3500 
L 3481 434 
z
" id="DejaVuSans-67" transform="scale(0.015625)"/>
       <path d="M 2059 -325 
Q 1816 -950 1584 -1140 
Q 1353 -1331 966 -1331 
L 506 -1331 
L 506 -850 
L 844 -850 
Q 1081 -850 1212 -737 
Q 1344 -625 1503 -206 
L 1606 56 
L 191 3500 
L 800 3500 
L 1894 763 
L 2988 3500 
L 3597 3500 
L 2059 -325 
z
" id="DejaVuSans-79" transform="scale(0.015625)"/>
       <path d="M 191 3500 
L 800 3500 
L 1894 563 
L 2988 3500 
L 3597 3500 
L 2284 0 
L 1503 0 
L 191 3500 
z
" id="DejaVuSans-76" transform="scale(0.015625)"/>
       <path d="M 2194 1759 
Q 1497 1759 1228 1600 
Q 959 1441 959 1056 
Q 959 750 1161 570 
Q 1363 391 1709 391 
Q 2188 391 2477 730 
Q 2766 1069 2766 1631 
L 2766 1759 
L 2194 1759 
z
M 3341 1997 
L 3341 0 
L 2766 0 
L 2766 531 
Q 2569 213 2275 61 
Q 1981 -91 1556 -91 
Q 1019 -91 701 211 
Q 384 513 384 1019 
Q 384 1609 779 1909 
Q 1175 2209 1959 2209 
L 2766 2209 
L 2766 2266 
Q 2766 2663 2505 2880 
Q 2244 3097 1772 3097 
Q 1472 3097 1187 3025 
Q 903 2953 641 2809 
L 641 3341 
Q 956 3463 1253 3523 
Q 1550 3584 1831 3584 
Q 2591 3584 2966 3190 
Q 3341 2797 3341 1997 
z
" id="DejaVuSans-61" transform="scale(0.015625)"/>
       <path d="M 544 1381 
L 544 3500 
L 1119 3500 
L 1119 1403 
Q 1119 906 1312 657 
Q 1506 409 1894 409 
Q 2359 409 2629 706 
Q 2900 1003 2900 1516 
L 2900 3500 
L 3475 3500 
L 3475 0 
L 2900 0 
L 2900 538 
Q 2691 219 2414 64 
Q 2138 -91 1772 -91 
Q 1169 -91 856 284 
Q 544 659 544 1381 
z
M 1991 3584 
L 1991 3584 
z
" id="DejaVuSans-75" transform="scale(0.015625)"/>
      </defs>
      <use xlink:href="#DejaVuSans-6c"/>
      <use x="27.783203" xlink:href="#DejaVuSans-6f"/>
      <use x="88.964844" xlink:href="#DejaVuSans-67"/>
      <use x="152.441406" xlink:href="#DejaVuSans-20"/>
      <use x="184.228516" xlink:href="#DejaVuSans-69"/>
      <use x="212.011719" xlink:href="#DejaVuSans-6e"/>
      <use x="275.390625" xlink:href="#DejaVuSans-74"/>
      <use x="314.599609" xlink:href="#DejaVuSans-65"/>
      <use x="376.123047" xlink:href="#DejaVuSans-6e"/>
      <use x="439.501953" xlink:href="#DejaVuSans-73"/>
      <use x="491.601562" xlink:href="#DejaVuSans-69"/>
      <use x="519.384766" xlink:href="#DejaVuSans-74"/>
      <use x="558.59375" xlink:href="#DejaVuSans-79"/>
      <use x="617.773438" xlink:href="#DejaVuSans-20"/>
      <use x="649.560547" xlink:href="#DejaVuSans-76"/>
      <use x="708.740234" xlink:href="#DejaVuSans-61"/>
      <use x="770.019531" xlink:href="#DejaVuSans-6c"/>
      <use x="797.802734" xlink:href="#DejaVuSans-75"/>
      <use x="861.181641" xlink:href="#DejaVuSans-65"/>
      <use x="922.705078" xlink:href="#DejaVuSans-20"/>
      <use x="954.492188" xlink:href="#DejaVuSans-28"/>
      <use x="993.505859" xlink:href="#DejaVuSans-61"/>
      <use x="1054.785156" xlink:href="#DejaVuSans-2e"/>
      <use x="1086.572266" xlink:href="#DejaVuSans-75"/>
      <use x="1149.951172" xlink:href="#DejaVuSans-2e"/>
      <use x="1181.738281" xlink:href="#DejaVuSans-29"/>
     </g>
    </g>
   </g>
   <g id="LineCollection_1">
    <path clip-path="url(#p3c07c2d6d5)" style="fill:none;stroke:#bfbf00;"/>
    <path clip-path="url(#p3c07c2d6d5)" d="M 162.850288 187.77806 
L 162.850288 126.128888 
" style="fill:none;stroke:#bfbf00;"/>
    <path clip-path="url(#p3c07c2d6d5)" d="M 188.175936 205.903459 
L 188.175936 156.713944 
" style="fill:none;stroke:#bfbf00;"/>
    <path clip-path="url(#p3c07c2d6d5)" d="M 213.501584 236.885408 
L 213.501584 197.502592 
" style="fill:none;stroke:#bfbf00;"/>
    <path clip-path="url(#p3c07c2d6d5)" d="M 238.827232 234.036241 
L 238.827232 195.060587 
" style="fill:none;stroke:#bfbf00;"/>
    <path clip-path="url(#p3c07c2d6d5)" d="M 264.15288 234.170447 
L 264.15288 193.199426 
" style="fill:none;stroke:#bfbf00;"/>
    <path clip-path="url(#p3c07c2d6d5)" d="M 289.478528 220.933361 
L 289.478528 171.165283 
" style="fill:none;stroke:#bfbf00;"/>
    <path clip-path="url(#p3c07c2d6d5)" d="M 314.804176 215.978478 
L 314.804176 171.733105 
" style="fill:none;stroke:#bfbf00;"/>
    <path clip-path="url(#p3c07c2d6d5)" d="M 340.129823 238.366363 
L 340.129823 191.294982 
" style="fill:none;stroke:#bfbf00;"/>
    <path clip-path="url(#p3c07c2d6d5)" d="M 365.455471 238.169088 
L 365.455471 184.235633 
" style="fill:none;stroke:#bfbf00;"/>
    <path clip-path="url(#p3c07c2d6d5)" d="M 390.781119 256.089549 
L 390.781119 210.792655 
" style="fill:none;stroke:#bfbf00;"/>
    <path clip-path="url(#p3c07c2d6d5)" d="M 416.106767 243.140295 
L 416.106767 189.55241 
" style="fill:none;stroke:#bfbf00;"/>
    <path clip-path="url(#p3c07c2d6d5)" d="M 441.432415 262.623467 
L 441.432415 218.775516 
" style="fill:none;stroke:#bfbf00;"/>
    <path clip-path="url(#p3c07c2d6d5)" d="M 466.758063 271.491583 
L 466.758063 226.952092 
" style="fill:none;stroke:#bfbf00;"/>
    <path clip-path="url(#p3c07c2d6d5)" d="M 492.083711 280.430501 
L 492.083711 231.659636 
" style="fill:none;stroke:#bfbf00;"/>
    <path clip-path="url(#p3c07c2d6d5)" d="M 517.409359 292.271541 
L 517.409359 236.267413 
" style="fill:none;stroke:#bfbf00;"/>
    <path clip-path="url(#p3c07c2d6d5)" d="M 542.735007 314.31593 
L 542.735007 242.158212 
" style="fill:none;stroke:#bfbf00;"/>
    <path clip-path="url(#p3c07c2d6d5)" d="M 568.060654 345.091755 
L 568.060654 252.596824 
" style="fill:none;stroke:#bfbf00;"/>
    <path clip-path="url(#p3c07c2d6d5)" d="M 593.386302 377.468094 
L 593.386302 266.487079 
" style="fill:none;stroke:#bfbf00;"/>
    <path clip-path="url(#p3c07c2d6d5)" d="M 618.71195 402.646189 
L 618.71195 281.453706 
" style="fill:none;stroke:#bfbf00;"/>
    <path clip-path="url(#p3c07c2d6d5)" d="M 644.037598 436.787761 
L 644.037598 304.603168 
" style="fill:none;stroke:#bfbf00;"/>
    <path clip-path="url(#p3c07c2d6d5)" d="M 669.363246 446.954363 
L 669.363246 329.649672 
" style="fill:none;stroke:#bfbf00;"/>
    <path clip-path="url(#p3c07c2d6d5)" d="M 694.688894 463.117289 
L 694.688894 350.993125 
" style="fill:none;stroke:#bfbf00;"/>
    <path clip-path="url(#p3c07c2d6d5)" d="M 720.014542 484.232727 
L 720.014542 366.682708 
" style="fill:none;stroke:#bfbf00;"/>
    <path clip-path="url(#p3c07c2d6d5)" d="M 745.34019 480.783945 
L 745.34019 379.720328 
" style="fill:none;stroke:#bfbf00;"/>
   </g>
   <g id="LineCollection_2">
    <path clip-path="url(#p3c07c2d6d5)" d="M 138.436364 164.161016 
L 138.436364 134.450129 
" style="fill:none;stroke:#ff0000;"/>
    <path clip-path="url(#p3c07c2d6d5)" d="M 163.762012 179.863569 
L 163.762012 129.635782 
" style="fill:none;stroke:#ff0000;"/>
    <path clip-path="url(#p3c07c2d6d5)" d="M 189.087659 190.859496 
L 189.087659 151.449508 
" style="fill:none;stroke:#ff0000;"/>
    <path clip-path="url(#p3c07c2d6d5)" d="M 214.413307 136.78651 
L 214.413307 107.402086 
" style="fill:none;stroke:#ff0000;"/>
    <path clip-path="url(#p3c07c2d6d5)" d="M 239.738955 128.614825 
L 239.738955 101.272363 
" style="fill:none;stroke:#ff0000;"/>
    <path clip-path="url(#p3c07c2d6d5)" d="M 265.064603 132.784233 
L 265.064603 106.47142 
" style="fill:none;stroke:#ff0000;"/>
    <path clip-path="url(#p3c07c2d6d5)" d="M 290.390251 115.908789 
L 290.390251 88.887273 
" style="fill:none;stroke:#ff0000;"/>
    <path clip-path="url(#p3c07c2d6d5)" d="M 315.715899 124.202449 
L 315.715899 97.183359 
" style="fill:none;stroke:#ff0000;"/>
    <path clip-path="url(#p3c07c2d6d5)" d="M 341.041547 142.985679 
L 341.041547 117.017807 
" style="fill:none;stroke:#ff0000;"/>
    <path clip-path="url(#p3c07c2d6d5)" d="M 366.367195 141.267518 
L 366.367195 115.62636 
" style="fill:none;stroke:#ff0000;"/>
    <path clip-path="url(#p3c07c2d6d5)" d="M 391.692843 175.917004 
L 391.692843 149.660532 
" style="fill:none;stroke:#ff0000;"/>
    <path clip-path="url(#p3c07c2d6d5)" d="M 417.01849 165.810181 
L 417.01849 133.855466 
" style="fill:none;stroke:#ff0000;"/>
    <path clip-path="url(#p3c07c2d6d5)" d="M 442.344138 202.166097 
L 442.344138 170.884368 
" style="fill:none;stroke:#ff0000;"/>
    <path clip-path="url(#p3c07c2d6d5)" d="M 467.669786 214.104846 
L 467.669786 181.715262 
" style="fill:none;stroke:#ff0000;"/>
    <path clip-path="url(#p3c07c2d6d5)" d="M 492.995434 230.541823 
L 492.995434 195.409726 
" style="fill:none;stroke:#ff0000;"/>
    <path clip-path="url(#p3c07c2d6d5)" d="M 518.321082 244.566007 
L 518.321082 209.542542 
" style="fill:none;stroke:#ff0000;"/>
    <path clip-path="url(#p3c07c2d6d5)" d="M 543.64673 258.307456 
L 543.64673 218.455726 
" style="fill:none;stroke:#ff0000;"/>
    <path clip-path="url(#p3c07c2d6d5)" d="M 568.972378 269.473938 
L 568.972378 226.480287 
" style="fill:none;stroke:#ff0000;"/>
    <path clip-path="url(#p3c07c2d6d5)" d="M 594.298026 292.567407 
L 594.298026 237.21889 
" style="fill:none;stroke:#ff0000;"/>
    <path clip-path="url(#p3c07c2d6d5)" d="M 619.623674 315.629139 
L 619.623674 242.800181 
" style="fill:none;stroke:#ff0000;"/>
    <path clip-path="url(#p3c07c2d6d5)" d="M 644.949321 348.476707 
L 644.949321 269.312044 
" style="fill:none;stroke:#ff0000;"/>
    <path clip-path="url(#p3c07c2d6d5)" d="M 670.274969 378.821589 
L 670.274969 289.175237 
" style="fill:none;stroke:#ff0000;"/>
    <path clip-path="url(#p3c07c2d6d5)" d="M 695.600617 403.120354 
L 695.600617 311.449702 
" style="fill:none;stroke:#ff0000;"/>
    <path clip-path="url(#p3c07c2d6d5)" d="M 720.926265 416.305026 
L 720.926265 337.701662 
" style="fill:none;stroke:#ff0000;"/>
    <path clip-path="url(#p3c07c2d6d5)" d="M 746.251913 419.897804 
L 746.251913 353.691188 
" style="fill:none;stroke:#ff0000;"/>
   </g>
   <g id="LineCollection_3">
    <path clip-path="url(#p3c07c2d6d5)" d="M 139.348087 386.763779 
L 139.348087 352.603506 
" style="fill:none;stroke:#bfbf00;"/>
    <path clip-path="url(#p3c07c2d6d5)" d="M 164.673735 402.454471 
L 164.673735 333.011652 
" style="fill:none;stroke:#bfbf00;"/>
    <path clip-path="url(#p3c07c2d6d5)" d="M 189.999383 438.39907 
L 189.999383 395.903314 
" style="fill:none;stroke:#bfbf00;"/>
    <path clip-path="url(#p3c07c2d6d5)" d="M 215.325031 435.73301 
L 215.325031 391.571263 
" style="fill:none;stroke:#bfbf00;"/>
    <path clip-path="url(#p3c07c2d6d5)" d="M 240.650679 435.840883 
L 240.650679 387.129831 
" style="fill:none;stroke:#bfbf00;"/>
    <path clip-path="url(#p3c07c2d6d5)" d="M 265.976326 434.375613 
L 265.976326 384.875848 
" style="fill:none;stroke:#bfbf00;"/>
    <path clip-path="url(#p3c07c2d6d5)" d="M 291.301974 433.19848 
L 291.301974 378.257369 
" style="fill:none;stroke:#bfbf00;"/>
    <path clip-path="url(#p3c07c2d6d5)" d="M 316.627622 433.239349 
L 316.627622 381.214661 
" style="fill:none;stroke:#bfbf00;"/>
    <path clip-path="url(#p3c07c2d6d5)" d="M 341.95327 435.19168 
L 341.95327 391.074731 
" style="fill:none;stroke:#bfbf00;"/>
    <path clip-path="url(#p3c07c2d6d5)" d="M 367.278918 433.552861 
L 367.278918 389.18651 
" style="fill:none;stroke:#bfbf00;"/>
    <path clip-path="url(#p3c07c2d6d5)" d="M 392.604566 436.336704 
L 392.604566 398.291044 
" style="fill:none;stroke:#bfbf00;"/>
    <path clip-path="url(#p3c07c2d6d5)" d="M 417.930214 433.292212 
L 417.930214 392.707969 
" style="fill:none;stroke:#bfbf00;"/>
    <path clip-path="url(#p3c07c2d6d5)" d="M 443.255862 436.860506 
L 443.255862 403.317375 
" style="fill:none;stroke:#bfbf00;"/>
    <path clip-path="url(#p3c07c2d6d5)" d="M 468.58151 437.009271 
L 468.58151 406.008358 
" style="fill:none;stroke:#bfbf00;"/>
    <path clip-path="url(#p3c07c2d6d5)" d="M 493.907157 437.27522 
L 493.907157 408.496097 
" style="fill:none;stroke:#bfbf00;"/>
    <path clip-path="url(#p3c07c2d6d5)" d="M 519.232805 438.120621 
L 519.232805 409.279343 
" style="fill:none;stroke:#bfbf00;"/>
    <path clip-path="url(#p3c07c2d6d5)" d="M 544.558453 439.18033 
L 544.558453 411.687001 
" style="fill:none;stroke:#bfbf00;"/>
    <path clip-path="url(#p3c07c2d6d5)" d="M 569.884101 442.393372 
L 569.884101 413.954104 
" style="fill:none;stroke:#bfbf00;"/>
    <path clip-path="url(#p3c07c2d6d5)" d="M 595.209749 444.931058 
L 595.209749 418.471521 
" style="fill:none;stroke:#bfbf00;"/>
    <path clip-path="url(#p3c07c2d6d5)" d="M 620.535397 448.262346 
L 620.535397 422.4825 
" style="fill:none;stroke:#bfbf00;"/>
    <path clip-path="url(#p3c07c2d6d5)" d="M 645.861045 452.330641 
L 645.861045 428.638492 
" style="fill:none;stroke:#bfbf00;"/>
    <path clip-path="url(#p3c07c2d6d5)" d="M 671.186693 454.210269 
L 671.186693 433.040585 
" style="fill:none;stroke:#bfbf00;"/>
    <path clip-path="url(#p3c07c2d6d5)" d="M 696.512341 456.256532 
L 696.512341 439.416395 
" style="fill:none;stroke:#bfbf00;"/>
    <path clip-path="url(#p3c07c2d6d5)" d="M 721.837988 456.754603 
L 721.837988 444.227099 
" style="fill:none;stroke:#bfbf00;"/>
    <path clip-path="url(#p3c07c2d6d5)" d="M 747.163636 457.712922 
L 747.163636 447.454517 
" style="fill:none;stroke:#bfbf00;"/>
   </g>
   <g id="line2d_23">
    <path clip-path="url(#p3c07c2d6d5)" d="M 138.436364 458.979518 
L 746.251913 458.979518 
" style="fill:none;stroke:#bfbf00;stroke-dasharray:5.55,2.4;stroke-dashoffset:0;stroke-width:1.5;"/>
   </g>
   <g id="line2d_24">
    <path clip-path="url(#p3c07c2d6d5)" d="M 138.436364 420.876193 
L 746.251913 420.876193 
" style="fill:none;stroke:#ff0000;stroke-dasharray:5.55,2.4;stroke-dashoffset:0;stroke-width:1.5;"/>
   </g>
   <g id="line2d_25">
    <defs>
     <path d="M 0 4.242641 
L 4.242641 0 
L 0 -4.242641 
L -4.242641 0 
z
" id="ma7f81aa9c5" style="stroke:#000000;stroke-linejoin:miter;"/>
    </defs>
    <g clip-path="url(#p3c07c2d6d5)">
     <use style="stroke:#000000;stroke-linejoin:miter;" x="178.9574" xlink:href="#ma7f81aa9c5" y="472.104153"/>
    </g>
   </g>
   <g id="line2d_26">
    <path clip-path="url(#p3c07c2d6d5)" d="M 576.87398 113.179707 
L 594.298026 113.179707 
" style="fill:none;stroke:#ff0000;stroke-linecap:square;stroke-width:10;"/>
   </g>
   <g id="line2d_27">
    <path clip-path="url(#p3c07c2d6d5)" d="M 592.221323 126.304343 
L 594.298026 126.304343 
" style="fill:none;stroke:#bfbf00;stroke-linecap:square;stroke-width:10;"/>
   </g>
   <g id="line2d_28">
    <path clip-path="url(#p3c07c2d6d5)" d="M 553.776989 113.179707 
L 594.298026 113.179707 
" style="fill:none;stroke:#ff0000;stroke-linecap:square;stroke-opacity:0.5;stroke-width:10;"/>
   </g>
   <g id="line2d_29">
    <path clip-path="url(#p3c07c2d6d5)" d="M 584.927536 126.304343 
L 594.298026 126.304343 
" style="fill:none;stroke:#bfbf00;stroke-linecap:square;stroke-opacity:0.5;stroke-width:10;"/>
   </g>
   <g id="line2d_30">
    <path clip-path="url(#p3c07c2d6d5)" style="fill:none;stroke:#000000;stroke-linecap:square;stroke-opacity:0.6;stroke-width:10;"/>
   </g>
   <g id="line2d_31">
    <path clip-path="url(#p3c07c2d6d5)" style="fill:none;stroke:#000000;stroke-linecap:square;stroke-opacity:0.3;stroke-width:10;"/>
   </g>
   <g id="line2d_32">
    <path clip-path="url(#p3c07c2d6d5)" d="M 162.850288 153.177995 
L 188.175936 178.896331 
L 213.501584 215.644064 
L 238.827232 213.030232 
L 264.15288 212.00804 
L 289.478528 193.580243 
L 314.804176 191.901603 
L 340.129823 212.620392 
L 365.455471 208.305992 
L 390.781119 231.393436 
L 416.106767 213.486701 
L 441.432415 238.780072 
L 466.758063 247.241719 
L 492.083711 253.673329 
L 517.409359 261.148313 
L 542.735007 273.083765 
L 568.060654 290.449622 
L 593.386302 310.00652 
L 618.71195 327.858523 
L 644.037598 353.927914 
L 669.363246 374.97592 
L 694.688894 394.84405 
L 720.014542 412.077737 
L 745.34019 420.272271 
" style="fill:none;stroke:#bfbf00;stroke-linecap:square;"/>
    <defs>
     <path d="M -3 3 
L 3 -3 
M -3 -3 
L 3 3 
" id="mbfa54dd165" style="stroke:#bfbf00;"/>
    </defs>
    <g clip-path="url(#p3c07c2d6d5)">
     <use style="fill:#bfbf00;stroke:#bfbf00;" x="162.850288" xlink:href="#mbfa54dd165" y="153.177995"/>
     <use style="fill:#bfbf00;stroke:#bfbf00;" x="188.175936" xlink:href="#mbfa54dd165" y="178.896331"/>
     <use style="fill:#bfbf00;stroke:#bfbf00;" x="213.501584" xlink:href="#mbfa54dd165" y="215.644064"/>
     <use style="fill:#bfbf00;stroke:#bfbf00;" x="238.827232" xlink:href="#mbfa54dd165" y="213.030232"/>
     <use style="fill:#bfbf00;stroke:#bfbf00;" x="264.15288" xlink:href="#mbfa54dd165" y="212.00804"/>
     <use style="fill:#bfbf00;stroke:#bfbf00;" x="289.478528" xlink:href="#mbfa54dd165" y="193.580243"/>
     <use style="fill:#bfbf00;stroke:#bfbf00;" x="314.804176" xlink:href="#mbfa54dd165" y="191.901603"/>
     <use style="fill:#bfbf00;stroke:#bfbf00;" x="340.129823" xlink:href="#mbfa54dd165" y="212.620392"/>
     <use style="fill:#bfbf00;stroke:#bfbf00;" x="365.455471" xlink:href="#mbfa54dd165" y="208.305992"/>
     <use style="fill:#bfbf00;stroke:#bfbf00;" x="390.781119" xlink:href="#mbfa54dd165" y="231.393436"/>
     <use style="fill:#bfbf00;stroke:#bfbf00;" x="416.106767" xlink:href="#mbfa54dd165" y="213.486701"/>
     <use style="fill:#bfbf00;stroke:#bfbf00;" x="441.432415" xlink:href="#mbfa54dd165" y="238.780072"/>
     <use style="fill:#bfbf00;stroke:#bfbf00;" x="466.758063" xlink:href="#mbfa54dd165" y="247.241719"/>
     <use style="fill:#bfbf00;stroke:#bfbf00;" x="492.083711" xlink:href="#mbfa54dd165" y="253.673329"/>
     <use style="fill:#bfbf00;stroke:#bfbf00;" x="517.409359" xlink:href="#mbfa54dd165" y="261.148313"/>
     <use style="fill:#bfbf00;stroke:#bfbf00;" x="542.735007" xlink:href="#mbfa54dd165" y="273.083765"/>
     <use style="fill:#bfbf00;stroke:#bfbf00;" x="568.060654" xlink:href="#mbfa54dd165" y="290.449622"/>
     <use style="fill:#bfbf00;stroke:#bfbf00;" x="593.386302" xlink:href="#mbfa54dd165" y="310.00652"/>
     <use style="fill:#bfbf00;stroke:#bfbf00;" x="618.71195" xlink:href="#mbfa54dd165" y="327.858523"/>
     <use style="fill:#bfbf00;stroke:#bfbf00;" x="644.037598" xlink:href="#mbfa54dd165" y="353.927914"/>
     <use style="fill:#bfbf00;stroke:#bfbf00;" x="669.363246" xlink:href="#mbfa54dd165" y="374.97592"/>
     <use style="fill:#bfbf00;stroke:#bfbf00;" x="694.688894" xlink:href="#mbfa54dd165" y="394.84405"/>
     <use style="fill:#bfbf00;stroke:#bfbf00;" x="720.014542" xlink:href="#mbfa54dd165" y="412.077737"/>
     <use style="fill:#bfbf00;stroke:#bfbf00;" x="745.34019" xlink:href="#mbfa54dd165" y="420.272271"/>
    </g>
   </g>
   <g id="line2d_33">
    <path clip-path="url(#p3c07c2d6d5)" d="M 138.436364 148.421872 
L 163.762012 152.235079 
L 189.087659 169.602435 
L 214.413307 121.229866 
L 239.738955 114.194897 
L 265.064603 118.934354 
L 290.390251 101.666773 
L 315.715899 109.961778 
L 341.041547 129.326301 
L 366.367195 127.788355 
L 391.692843 162.098256 
L 417.01849 148.810982 
L 442.344138 185.545868 
L 467.669786 196.86029 
L 492.995434 211.741321 
L 518.321082 225.827418 
L 543.64673 236.794683 
L 568.972378 246.131394 
L 594.298026 261.844045 
L 619.623674 273.966363 
L 644.949321 302.708701 
L 670.274969 326.102367 
L 695.600617 349.036112 
L 720.926265 370.903676 
L 746.251913 382.446823 
" style="fill:none;stroke:#ff0000;stroke-linecap:square;"/>
    <defs>
     <path d="M 0 3 
C 0.795609 3 1.55874 2.683901 2.12132 2.12132 
C 2.683901 1.55874 3 0.795609 3 0 
C 3 -0.795609 2.683901 -1.55874 2.12132 -2.12132 
C 1.55874 -2.683901 0.795609 -3 0 -3 
C -0.795609 -3 -1.55874 -2.683901 -2.12132 -2.12132 
C -2.683901 -1.55874 -3 -0.795609 -3 0 
C -3 0.795609 -2.683901 1.55874 -2.12132 2.12132 
C -1.55874 2.683901 -0.795609 3 0 3 
z
" id="mdc22224c4a" style="stroke:#ff0000;"/>
    </defs>
    <g clip-path="url(#p3c07c2d6d5)">
     <use style="fill:#ff0000;stroke:#ff0000;" x="138.436364" xlink:href="#mdc22224c4a" y="148.421872"/>
     <use style="fill:#ff0000;stroke:#ff0000;" x="163.762012" xlink:href="#mdc22224c4a" y="152.235079"/>
     <use style="fill:#ff0000;stroke:#ff0000;" x="189.087659" xlink:href="#mdc22224c4a" y="169.602435"/>
     <use style="fill:#ff0000;stroke:#ff0000;" x="214.413307" xlink:href="#mdc22224c4a" y="121.229866"/>
     <use style="fill:#ff0000;stroke:#ff0000;" x="239.738955" xlink:href="#mdc22224c4a" y="114.194897"/>
     <use style="fill:#ff0000;stroke:#ff0000;" x="265.064603" xlink:href="#mdc22224c4a" y="118.934354"/>
     <use style="fill:#ff0000;stroke:#ff0000;" x="290.390251" xlink:href="#mdc22224c4a" y="101.666773"/>
     <use style="fill:#ff0000;stroke:#ff0000;" x="315.715899" xlink:href="#mdc22224c4a" y="109.961778"/>
     <use style="fill:#ff0000;stroke:#ff0000;" x="341.041547" xlink:href="#mdc22224c4a" y="129.326301"/>
     <use style="fill:#ff0000;stroke:#ff0000;" x="366.367195" xlink:href="#mdc22224c4a" y="127.788355"/>
     <use style="fill:#ff0000;stroke:#ff0000;" x="391.692843" xlink:href="#mdc22224c4a" y="162.098256"/>
     <use style="fill:#ff0000;stroke:#ff0000;" x="417.01849" xlink:href="#mdc22224c4a" y="148.810982"/>
     <use style="fill:#ff0000;stroke:#ff0000;" x="442.344138" xlink:href="#mdc22224c4a" y="185.545868"/>
     <use style="fill:#ff0000;stroke:#ff0000;" x="467.669786" xlink:href="#mdc22224c4a" y="196.86029"/>
     <use style="fill:#ff0000;stroke:#ff0000;" x="492.995434" xlink:href="#mdc22224c4a" y="211.741321"/>
     <use style="fill:#ff0000;stroke:#ff0000;" x="518.321082" xlink:href="#mdc22224c4a" y="225.827418"/>
     <use style="fill:#ff0000;stroke:#ff0000;" x="543.64673" xlink:href="#mdc22224c4a" y="236.794683"/>
     <use style="fill:#ff0000;stroke:#ff0000;" x="568.972378" xlink:href="#mdc22224c4a" y="246.131394"/>
     <use style="fill:#ff0000;stroke:#ff0000;" x="594.298026" xlink:href="#mdc22224c4a" y="261.844045"/>
     <use style="fill:#ff0000;stroke:#ff0000;" x="619.623674" xlink:href="#mdc22224c4a" y="273.966363"/>
     <use style="fill:#ff0000;stroke:#ff0000;" x="644.949321" xlink:href="#mdc22224c4a" y="302.708701"/>
     <use style="fill:#ff0000;stroke:#ff0000;" x="670.274969" xlink:href="#mdc22224c4a" y="326.102367"/>
     <use style="fill:#ff0000;stroke:#ff0000;" x="695.600617" xlink:href="#mdc22224c4a" y="349.036112"/>
     <use style="fill:#ff0000;stroke:#ff0000;" x="720.926265" xlink:href="#mdc22224c4a" y="370.903676"/>
     <use style="fill:#ff0000;stroke:#ff0000;" x="746.251913" xlink:href="#mdc22224c4a" y="382.446823"/>
    </g>
   </g>
   <g id="line2d_34">
    <path clip-path="url(#p3c07c2d6d5)" d="M 139.348087 368.51633 
L 164.673735 362.955455 
L 189.999383 415.347772 
L 215.325031 411.70529 
L 240.650679 409.119394 
L 265.976326 407.183031 
L 291.301974 402.723188 
L 316.627622 404.530581 
L 341.95327 411.190286 
L 367.278918 409.404851 
L 392.604566 415.867002 
L 417.930214 411.354567 
L 443.255862 418.963299 
L 468.58151 420.546909 
L 493.907157 422.056396 
L 519.232805 422.867141 
L 544.558453 424.6767 
L 569.884101 427.363903 
L 595.209749 431.000076 
L 620.535397 434.706709 
L 645.861045 439.922153 
L 671.186693 443.17626 
L 696.512341 447.552108 
L 721.837988 450.333435 
L 747.163636 452.47815 
" style="fill:none;stroke:#bfbf00;stroke-linecap:square;"/>
    <defs>
     <path d="M 0 3 
C 0.795609 3 1.55874 2.683901 2.12132 2.12132 
C 2.683901 1.55874 3 0.795609 3 0 
C 3 -0.795609 2.683901 -1.55874 2.12132 -2.12132 
C 1.55874 -2.683901 0.795609 -3 0 -3 
C -0.795609 -3 -1.55874 -2.683901 -2.12132 -2.12132 
C -2.683901 -1.55874 -3 -0.795609 -3 0 
C -3 0.795609 -2.683901 1.55874 -2.12132 2.12132 
C -1.55874 2.683901 -0.795609 3 0 3 
z
" id="mad67c35bd0" style="stroke:#bfbf00;"/>
    </defs>
    <g clip-path="url(#p3c07c2d6d5)">
     <use style="fill:#bfbf00;stroke:#bfbf00;" x="139.348087" xlink:href="#mad67c35bd0" y="368.51633"/>
     <use style="fill:#bfbf00;stroke:#bfbf00;" x="164.673735" xlink:href="#mad67c35bd0" y="362.955455"/>
     <use style="fill:#bfbf00;stroke:#bfbf00;" x="189.999383" xlink:href="#mad67c35bd0" y="415.347772"/>
     <use style="fill:#bfbf00;stroke:#bfbf00;" x="215.325031" xlink:href="#mad67c35bd0" y="411.70529"/>
     <use style="fill:#bfbf00;stroke:#bfbf00;" x="240.650679" xlink:href="#mad67c35bd0" y="409.119394"/>
     <use style="fill:#bfbf00;stroke:#bfbf00;" x="265.976326" xlink:href="#mad67c35bd0" y="407.183031"/>
     <use style="fill:#bfbf00;stroke:#bfbf00;" x="291.301974" xlink:href="#mad67c35bd0" y="402.723188"/>
     <use style="fill:#bfbf00;stroke:#bfbf00;" x="316.627622" xlink:href="#mad67c35bd0" y="404.530581"/>
     <use style="fill:#bfbf00;stroke:#bfbf00;" x="341.95327" xlink:href="#mad67c35bd0" y="411.190286"/>
     <use style="fill:#bfbf00;stroke:#bfbf00;" x="367.278918" xlink:href="#mad67c35bd0" y="409.404851"/>
     <use style="fill:#bfbf00;stroke:#bfbf00;" x="392.604566" xlink:href="#mad67c35bd0" y="415.867002"/>
     <use style="fill:#bfbf00;stroke:#bfbf00;" x="417.930214" xlink:href="#mad67c35bd0" y="411.354567"/>
     <use style="fill:#bfbf00;stroke:#bfbf00;" x="443.255862" xlink:href="#mad67c35bd0" y="418.963299"/>
     <use style="fill:#bfbf00;stroke:#bfbf00;" x="468.58151" xlink:href="#mad67c35bd0" y="420.546909"/>
     <use style="fill:#bfbf00;stroke:#bfbf00;" x="493.907157" xlink:href="#mad67c35bd0" y="422.056396"/>
     <use style="fill:#bfbf00;stroke:#bfbf00;" x="519.232805" xlink:href="#mad67c35bd0" y="422.867141"/>
     <use style="fill:#bfbf00;stroke:#bfbf00;" x="544.558453" xlink:href="#mad67c35bd0" y="424.6767"/>
     <use style="fill:#bfbf00;stroke:#bfbf00;" x="569.884101" xlink:href="#mad67c35bd0" y="427.363903"/>
     <use style="fill:#bfbf00;stroke:#bfbf00;" x="595.209749" xlink:href="#mad67c35bd0" y="431.000076"/>
     <use style="fill:#bfbf00;stroke:#bfbf00;" x="620.535397" xlink:href="#mad67c35bd0" y="434.706709"/>
     <use style="fill:#bfbf00;stroke:#bfbf00;" x="645.861045" xlink:href="#mad67c35bd0" y="439.922153"/>
     <use style="fill:#bfbf00;stroke:#bfbf00;" x="671.186693" xlink:href="#mad67c35bd0" y="443.17626"/>
     <use style="fill:#bfbf00;stroke:#bfbf00;" x="696.512341" xlink:href="#mad67c35bd0" y="447.552108"/>
     <use style="fill:#bfbf00;stroke:#bfbf00;" x="721.837988" xlink:href="#mad67c35bd0" y="450.333435"/>
     <use style="fill:#bfbf00;stroke:#bfbf00;" x="747.163636" xlink:href="#mad67c35bd0" y="452.47815"/>
    </g>
   </g>
   <g id="patch_3">
    <path d="M 108 504 
L 108 69.12 
" style="fill:none;stroke:#000000;stroke-linecap:square;stroke-linejoin:miter;stroke-width:0.8;"/>
   </g>
   <g id="patch_4">
    <path d="M 777.6 504 
L 777.6 69.12 
" style="fill:none;stroke:#000000;stroke-linecap:square;stroke-linejoin:miter;stroke-width:0.8;"/>
   </g>
   <g id="patch_5">
    <path d="M 108 504 
L 777.6 504 
" style="fill:none;stroke:#000000;stroke-linecap:square;stroke-linejoin:miter;stroke-width:0.8;"/>
   </g>
   <g id="patch_6">
    <path d="M 108 69.12 
L 777.6 69.12 
" style="fill:none;stroke:#000000;stroke-linecap:square;stroke-linejoin:miter;stroke-width:0.8;"/>
   </g>
   <g id="legend_1">
    <g id="patch_7">
     <path d="M 620.935938 179.866875 
L 770.6 179.866875 
Q 772.6 179.866875 772.6 177.866875 
L 772.6 76.12 
Q 772.6 74.12 770.6 74.12 
L 620.935938 74.12 
Q 618.935938 74.12 618.935938 76.12 
L 618.935938 177.866875 
Q 618.935938 179.866875 620.935938 179.866875 
z
" style="fill:#ffffff;opacity:0.8;stroke:#cccccc;stroke-linejoin:miter;"/>
    </g>
    <g id="line2d_35">
     <path d="M 622.935938 82.218437 
L 642.935938 82.218437 
" style="fill:none;stroke:#bfbf00;stroke-dasharray:5.55,2.4;stroke-dashoffset:0;stroke-width:1.5;"/>
    </g>
    <g id="line2d_36"/>
    <g id="text_14">
     <!-- YFP background -->
     <g transform="translate(650.935938 85.718437)scale(0.1 -0.1)">
      <defs>
       <path d="M -13 4666 
L 666 4666 
L 1959 2747 
L 3244 4666 
L 3922 4666 
L 2272 2222 
L 2272 0 
L 1638 0 
L 1638 2222 
L -13 4666 
z
" id="DejaVuSans-59" transform="scale(0.015625)"/>
       <path d="M 628 4666 
L 3309 4666 
L 3309 4134 
L 1259 4134 
L 1259 2759 
L 3109 2759 
L 3109 2228 
L 1259 2228 
L 1259 0 
L 628 0 
L 628 4666 
z
" id="DejaVuSans-46" transform="scale(0.015625)"/>
       <path d="M 1259 4147 
L 1259 2394 
L 2053 2394 
Q 2494 2394 2734 2622 
Q 2975 2850 2975 3272 
Q 2975 3691 2734 3919 
Q 2494 4147 2053 4147 
L 1259 4147 
z
M 628 4666 
L 2053 4666 
Q 2838 4666 3239 4311 
Q 3641 3956 3641 3272 
Q 3641 2581 3239 2228 
Q 2838 1875 2053 1875 
L 1259 1875 
L 1259 0 
L 628 0 
L 628 4666 
z
" id="DejaVuSans-50" transform="scale(0.015625)"/>
       <path d="M 3116 1747 
Q 3116 2381 2855 2742 
Q 2594 3103 2138 3103 
Q 1681 3103 1420 2742 
Q 1159 2381 1159 1747 
Q 1159 1113 1420 752 
Q 1681 391 2138 391 
Q 2594 391 2855 752 
Q 3116 1113 3116 1747 
z
M 1159 2969 
Q 1341 3281 1617 3432 
Q 1894 3584 2278 3584 
Q 2916 3584 3314 3078 
Q 3713 2572 3713 1747 
Q 3713 922 3314 415 
Q 2916 -91 2278 -91 
Q 1894 -91 1617 61 
Q 1341 213 1159 525 
L 1159 0 
L 581 0 
L 581 4863 
L 1159 4863 
L 1159 2969 
z
" id="DejaVuSans-62" transform="scale(0.015625)"/>
       <path d="M 3122 3366 
L 3122 2828 
Q 2878 2963 2633 3030 
Q 2388 3097 2138 3097 
Q 1578 3097 1268 2742 
Q 959 2388 959 1747 
Q 959 1106 1268 751 
Q 1578 397 2138 397 
Q 2388 397 2633 464 
Q 2878 531 3122 666 
L 3122 134 
Q 2881 22 2623 -34 
Q 2366 -91 2075 -91 
Q 1284 -91 818 406 
Q 353 903 353 1747 
Q 353 2603 823 3093 
Q 1294 3584 2113 3584 
Q 2378 3584 2631 3529 
Q 2884 3475 3122 3366 
z
" id="DejaVuSans-63" transform="scale(0.015625)"/>
       <path d="M 581 4863 
L 1159 4863 
L 1159 1991 
L 2875 3500 
L 3609 3500 
L 1753 1863 
L 3688 0 
L 2938 0 
L 1159 1709 
L 1159 0 
L 581 0 
L 581 4863 
z
" id="DejaVuSans-6b" transform="scale(0.015625)"/>
       <path d="M 2906 2969 
L 2906 4863 
L 3481 4863 
L 3481 0 
L 2906 0 
L 2906 525 
Q 2725 213 2448 61 
Q 2172 -91 1784 -91 
Q 1150 -91 751 415 
Q 353 922 353 1747 
Q 353 2572 751 3078 
Q 1150 3584 1784 3584 
Q 2172 3584 2448 3432 
Q 2725 3281 2906 2969 
z
M 947 1747 
Q 947 1113 1208 752 
Q 1469 391 1925 391 
Q 2381 391 2643 752 
Q 2906 1113 2906 1747 
Q 2906 2381 2643 2742 
Q 2381 3103 1925 3103 
Q 1469 3103 1208 2742 
Q 947 2381 947 1747 
z
" id="DejaVuSans-64" transform="scale(0.015625)"/>
      </defs>
      <use xlink:href="#DejaVuSans-59"/>
      <use x="61.083984" xlink:href="#DejaVuSans-46"/>
      <use x="118.603516" xlink:href="#DejaVuSans-50"/>
      <use x="178.90625" xlink:href="#DejaVuSans-20"/>
      <use x="210.693359" xlink:href="#DejaVuSans-62"/>
      <use x="274.169922" xlink:href="#DejaVuSans-61"/>
      <use x="335.449219" xlink:href="#DejaVuSans-63"/>
      <use x="390.429688" xlink:href="#DejaVuSans-6b"/>
      <use x="448.339844" xlink:href="#DejaVuSans-67"/>
      <use x="511.816406" xlink:href="#DejaVuSans-72"/>
      <use x="550.679688" xlink:href="#DejaVuSans-6f"/>
      <use x="611.861328" xlink:href="#DejaVuSans-75"/>
      <use x="675.240234" xlink:href="#DejaVuSans-6e"/>
      <use x="738.619141" xlink:href="#DejaVuSans-64"/>
     </g>
    </g>
    <g id="line2d_37">
     <path d="M 622.935938 96.896563 
L 642.935938 96.896563 
" style="fill:none;stroke:#ff0000;stroke-dasharray:5.55,2.4;stroke-dashoffset:0;stroke-width:1.5;"/>
    </g>
    <g id="line2d_38"/>
    <g id="text_15">
     <!-- RFP background -->
     <g transform="translate(650.935938 100.396563)scale(0.1 -0.1)">
      <defs>
       <path d="M 2841 2188 
Q 3044 2119 3236 1894 
Q 3428 1669 3622 1275 
L 4263 0 
L 3584 0 
L 2988 1197 
Q 2756 1666 2539 1819 
Q 2322 1972 1947 1972 
L 1259 1972 
L 1259 0 
L 628 0 
L 628 4666 
L 2053 4666 
Q 2853 4666 3247 4331 
Q 3641 3997 3641 3322 
Q 3641 2881 3436 2590 
Q 3231 2300 2841 2188 
z
M 1259 4147 
L 1259 2491 
L 2053 2491 
Q 2509 2491 2742 2702 
Q 2975 2913 2975 3322 
Q 2975 3731 2742 3939 
Q 2509 4147 2053 4147 
L 1259 4147 
z
" id="DejaVuSans-52" transform="scale(0.015625)"/>
      </defs>
      <use xlink:href="#DejaVuSans-52"/>
      <use x="69.482422" xlink:href="#DejaVuSans-46"/>
      <use x="127.001953" xlink:href="#DejaVuSans-50"/>
      <use x="187.304688" xlink:href="#DejaVuSans-20"/>
      <use x="219.091797" xlink:href="#DejaVuSans-62"/>
      <use x="282.568359" xlink:href="#DejaVuSans-61"/>
      <use x="343.847656" xlink:href="#DejaVuSans-63"/>
      <use x="398.828125" xlink:href="#DejaVuSans-6b"/>
      <use x="456.738281" xlink:href="#DejaVuSans-67"/>
      <use x="520.214844" xlink:href="#DejaVuSans-72"/>
      <use x="559.078125" xlink:href="#DejaVuSans-6f"/>
      <use x="620.259766" xlink:href="#DejaVuSans-75"/>
      <use x="683.638672" xlink:href="#DejaVuSans-6e"/>
      <use x="747.017578" xlink:href="#DejaVuSans-64"/>
     </g>
    </g>
    <g id="line2d_39">
     <path d="M 622.935938 111.574687 
L 642.935938 111.574687 
" style="fill:none;stroke:#000000;stroke-linecap:square;stroke-opacity:0.6;stroke-width:10;"/>
    </g>
    <g id="line2d_40"/>
    <g id="text_16">
     <!-- 50% maturation time -->
     <g transform="translate(650.935938 115.074687)scale(0.1 -0.1)">
      <defs>
       <path d="M 4653 2053 
Q 4381 2053 4226 1822 
Q 4072 1591 4072 1178 
Q 4072 772 4226 539 
Q 4381 306 4653 306 
Q 4919 306 5073 539 
Q 5228 772 5228 1178 
Q 5228 1588 5073 1820 
Q 4919 2053 4653 2053 
z
M 4653 2450 
Q 5147 2450 5437 2106 
Q 5728 1763 5728 1178 
Q 5728 594 5436 251 
Q 5144 -91 4653 -91 
Q 4153 -91 3862 251 
Q 3572 594 3572 1178 
Q 3572 1766 3864 2108 
Q 4156 2450 4653 2450 
z
M 1428 4353 
Q 1159 4353 1004 4120 
Q 850 3888 850 3481 
Q 850 3069 1003 2837 
Q 1156 2606 1428 2606 
Q 1700 2606 1854 2837 
Q 2009 3069 2009 3481 
Q 2009 3884 1853 4118 
Q 1697 4353 1428 4353 
z
M 4250 4750 
L 4750 4750 
L 1831 -91 
L 1331 -91 
L 4250 4750 
z
M 1428 4750 
Q 1922 4750 2215 4408 
Q 2509 4066 2509 3481 
Q 2509 2891 2217 2550 
Q 1925 2209 1428 2209 
Q 931 2209 642 2551 
Q 353 2894 353 3481 
Q 353 4063 643 4406 
Q 934 4750 1428 4750 
z
" id="DejaVuSans-25" transform="scale(0.015625)"/>
      </defs>
      <use xlink:href="#DejaVuSans-35"/>
      <use x="63.623047" xlink:href="#DejaVuSans-30"/>
      <use x="127.246094" xlink:href="#DejaVuSans-25"/>
      <use x="222.265625" xlink:href="#DejaVuSans-20"/>
      <use x="254.052734" xlink:href="#DejaVuSans-6d"/>
      <use x="351.464844" xlink:href="#DejaVuSans-61"/>
      <use x="412.744141" xlink:href="#DejaVuSans-74"/>
      <use x="451.953125" xlink:href="#DejaVuSans-75"/>
      <use x="515.332031" xlink:href="#DejaVuSans-72"/>
      <use x="556.445312" xlink:href="#DejaVuSans-61"/>
      <use x="617.724609" xlink:href="#DejaVuSans-74"/>
      <use x="656.933594" xlink:href="#DejaVuSans-69"/>
      <use x="684.716797" xlink:href="#DejaVuSans-6f"/>
      <use x="745.898438" xlink:href="#DejaVuSans-6e"/>
      <use x="809.277344" xlink:href="#DejaVuSans-20"/>
      <use x="841.064453" xlink:href="#DejaVuSans-74"/>
      <use x="880.273438" xlink:href="#DejaVuSans-69"/>
      <use x="908.056641" xlink:href="#DejaVuSans-6d"/>
      <use x="1005.46875" xlink:href="#DejaVuSans-65"/>
     </g>
    </g>
    <g id="line2d_41">
     <path d="M 622.935938 126.252813 
L 642.935938 126.252813 
" style="fill:none;stroke:#000000;stroke-linecap:square;stroke-opacity:0.3;stroke-width:10;"/>
    </g>
    <g id="line2d_42"/>
    <g id="text_17">
     <!-- 90% maturation time -->
     <g transform="translate(650.935938 129.752813)scale(0.1 -0.1)">
      <defs>
       <path d="M 703 97 
L 703 672 
Q 941 559 1184 500 
Q 1428 441 1663 441 
Q 2288 441 2617 861 
Q 2947 1281 2994 2138 
Q 2813 1869 2534 1725 
Q 2256 1581 1919 1581 
Q 1219 1581 811 2004 
Q 403 2428 403 3163 
Q 403 3881 828 4315 
Q 1253 4750 1959 4750 
Q 2769 4750 3195 4129 
Q 3622 3509 3622 2328 
Q 3622 1225 3098 567 
Q 2575 -91 1691 -91 
Q 1453 -91 1209 -44 
Q 966 3 703 97 
z
M 1959 2075 
Q 2384 2075 2632 2365 
Q 2881 2656 2881 3163 
Q 2881 3666 2632 3958 
Q 2384 4250 1959 4250 
Q 1534 4250 1286 3958 
Q 1038 3666 1038 3163 
Q 1038 2656 1286 2365 
Q 1534 2075 1959 2075 
z
" id="DejaVuSans-39" transform="scale(0.015625)"/>
      </defs>
      <use xlink:href="#DejaVuSans-39"/>
      <use x="63.623047" xlink:href="#DejaVuSans-30"/>
      <use x="127.246094" xlink:href="#DejaVuSans-25"/>
      <use x="222.265625" xlink:href="#DejaVuSans-20"/>
      <use x="254.052734" xlink:href="#DejaVuSans-6d"/>
      <use x="351.464844" xlink:href="#DejaVuSans-61"/>
      <use x="412.744141" xlink:href="#DejaVuSans-74"/>
      <use x="451.953125" xlink:href="#DejaVuSans-75"/>
      <use x="515.332031" xlink:href="#DejaVuSans-72"/>
      <use x="556.445312" xlink:href="#DejaVuSans-61"/>
      <use x="617.724609" xlink:href="#DejaVuSans-74"/>
      <use x="656.933594" xlink:href="#DejaVuSans-69"/>
      <use x="684.716797" xlink:href="#DejaVuSans-6f"/>
      <use x="745.898438" xlink:href="#DejaVuSans-6e"/>
      <use x="809.277344" xlink:href="#DejaVuSans-20"/>
      <use x="841.064453" xlink:href="#DejaVuSans-74"/>
      <use x="880.273438" xlink:href="#DejaVuSans-69"/>
      <use x="908.056641" xlink:href="#DejaVuSans-6d"/>
      <use x="1005.46875" xlink:href="#DejaVuSans-65"/>
     </g>
    </g>
    <g id="LineCollection_4">
     <path d="M 632.935938 145.930938 
L 632.935938 135.930938 
" style="fill:none;stroke:#bfbf00;"/>
    </g>
    <g id="line2d_43">
     <path d="M 622.935938 140.930938 
L 642.935938 140.930938 
" style="fill:none;stroke:#bfbf00;stroke-linecap:square;"/>
    </g>
    <g id="line2d_44">
     <g>
      <use style="fill:#bfbf00;stroke:#bfbf00;" x="632.935938" xlink:href="#mbfa54dd165" y="140.930938"/>
     </g>
    </g>
    <g id="text_18">
     <!-- YFP intensity for SB6 -->
     <g transform="translate(650.935938 144.430938)scale(0.1 -0.1)">
      <defs>
       <path d="M 2375 4863 
L 2375 4384 
L 1825 4384 
Q 1516 4384 1395 4259 
Q 1275 4134 1275 3809 
L 1275 3500 
L 2222 3500 
L 2222 3053 
L 1275 3053 
L 1275 0 
L 697 0 
L 697 3053 
L 147 3053 
L 147 3500 
L 697 3500 
L 697 3744 
Q 697 4328 969 4595 
Q 1241 4863 1831 4863 
L 2375 4863 
z
" id="DejaVuSans-66" transform="scale(0.015625)"/>
       <path d="M 3425 4513 
L 3425 3897 
Q 3066 4069 2747 4153 
Q 2428 4238 2131 4238 
Q 1616 4238 1336 4038 
Q 1056 3838 1056 3469 
Q 1056 3159 1242 3001 
Q 1428 2844 1947 2747 
L 2328 2669 
Q 3034 2534 3370 2195 
Q 3706 1856 3706 1288 
Q 3706 609 3251 259 
Q 2797 -91 1919 -91 
Q 1588 -91 1214 -16 
Q 841 59 441 206 
L 441 856 
Q 825 641 1194 531 
Q 1563 422 1919 422 
Q 2459 422 2753 634 
Q 3047 847 3047 1241 
Q 3047 1584 2836 1778 
Q 2625 1972 2144 2069 
L 1759 2144 
Q 1053 2284 737 2584 
Q 422 2884 422 3419 
Q 422 4038 858 4394 
Q 1294 4750 2059 4750 
Q 2388 4750 2728 4690 
Q 3069 4631 3425 4513 
z
" id="DejaVuSans-53" transform="scale(0.015625)"/>
       <path d="M 1259 2228 
L 1259 519 
L 2272 519 
Q 2781 519 3026 730 
Q 3272 941 3272 1375 
Q 3272 1813 3026 2020 
Q 2781 2228 2272 2228 
L 1259 2228 
z
M 1259 4147 
L 1259 2741 
L 2194 2741 
Q 2656 2741 2882 2914 
Q 3109 3088 3109 3444 
Q 3109 3797 2882 3972 
Q 2656 4147 2194 4147 
L 1259 4147 
z
M 628 4666 
L 2241 4666 
Q 2963 4666 3353 4366 
Q 3744 4066 3744 3513 
Q 3744 3084 3544 2831 
Q 3344 2578 2956 2516 
Q 3422 2416 3680 2098 
Q 3938 1781 3938 1306 
Q 3938 681 3513 340 
Q 3088 0 2303 0 
L 628 0 
L 628 4666 
z
" id="DejaVuSans-42" transform="scale(0.015625)"/>
       <path d="M 2113 2584 
Q 1688 2584 1439 2293 
Q 1191 2003 1191 1497 
Q 1191 994 1439 701 
Q 1688 409 2113 409 
Q 2538 409 2786 701 
Q 3034 994 3034 1497 
Q 3034 2003 2786 2293 
Q 2538 2584 2113 2584 
z
M 3366 4563 
L 3366 3988 
Q 3128 4100 2886 4159 
Q 2644 4219 2406 4219 
Q 1781 4219 1451 3797 
Q 1122 3375 1075 2522 
Q 1259 2794 1537 2939 
Q 1816 3084 2150 3084 
Q 2853 3084 3261 2657 
Q 3669 2231 3669 1497 
Q 3669 778 3244 343 
Q 2819 -91 2113 -91 
Q 1303 -91 875 529 
Q 447 1150 447 2328 
Q 447 3434 972 4092 
Q 1497 4750 2381 4750 
Q 2619 4750 2861 4703 
Q 3103 4656 3366 4563 
z
" id="DejaVuSans-36" transform="scale(0.015625)"/>
      </defs>
      <use xlink:href="#DejaVuSans-59"/>
      <use x="61.083984" xlink:href="#DejaVuSans-46"/>
      <use x="118.603516" xlink:href="#DejaVuSans-50"/>
      <use x="178.90625" xlink:href="#DejaVuSans-20"/>
      <use x="210.693359" xlink:href="#DejaVuSans-69"/>
      <use x="238.476562" xlink:href="#DejaVuSans-6e"/>
      <use x="301.855469" xlink:href="#DejaVuSans-74"/>
      <use x="341.064453" xlink:href="#DejaVuSans-65"/>
      <use x="402.587891" xlink:href="#DejaVuSans-6e"/>
      <use x="465.966797" xlink:href="#DejaVuSans-73"/>
      <use x="518.066406" xlink:href="#DejaVuSans-69"/>
      <use x="545.849609" xlink:href="#DejaVuSans-74"/>
      <use x="585.058594" xlink:href="#DejaVuSans-79"/>
      <use x="644.238281" xlink:href="#DejaVuSans-20"/>
      <use x="676.025391" xlink:href="#DejaVuSans-66"/>
      <use x="711.230469" xlink:href="#DejaVuSans-6f"/>
      <use x="772.412109" xlink:href="#DejaVuSans-72"/>
      <use x="813.525391" xlink:href="#DejaVuSans-20"/>
      <use x="845.3125" xlink:href="#DejaVuSans-53"/>
      <use x="908.789062" xlink:href="#DejaVuSans-42"/>
      <use x="977.392578" xlink:href="#DejaVuSans-36"/>
     </g>
    </g>
    <g id="LineCollection_5">
     <path d="M 632.935938 160.609062 
L 632.935938 150.609062 
" style="fill:none;stroke:#ff0000;"/>
    </g>
    <g id="line2d_45">
     <path d="M 622.935938 155.609062 
L 642.935938 155.609062 
" style="fill:none;stroke:#ff0000;stroke-linecap:square;"/>
    </g>
    <g id="line2d_46">
     <g>
      <use style="fill:#ff0000;stroke:#ff0000;" x="632.935938" xlink:href="#mdc22224c4a" y="155.609062"/>
     </g>
    </g>
    <g id="text_19">
     <!-- RFP intensity for SB111 -->
     <g transform="translate(650.935938 159.109062)scale(0.1 -0.1)">
      <use xlink:href="#DejaVuSans-52"/>
      <use x="69.482422" xlink:href="#DejaVuSans-46"/>
      <use x="127.001953" xlink:href="#DejaVuSans-50"/>
      <use x="187.304688" xlink:href="#DejaVuSans-20"/>
      <use x="219.091797" xlink:href="#DejaVuSans-69"/>
      <use x="246.875" xlink:href="#DejaVuSans-6e"/>
      <use x="310.253906" xlink:href="#DejaVuSans-74"/>
      <use x="349.462891" xlink:href="#DejaVuSans-65"/>
      <use x="410.986328" xlink:href="#DejaVuSans-6e"/>
      <use x="474.365234" xlink:href="#DejaVuSans-73"/>
      <use x="526.464844" xlink:href="#DejaVuSans-69"/>
      <use x="554.248047" xlink:href="#DejaVuSans-74"/>
      <use x="593.457031" xlink:href="#DejaVuSans-79"/>
      <use x="652.636719" xlink:href="#DejaVuSans-20"/>
      <use x="684.423828" xlink:href="#DejaVuSans-66"/>
      <use x="719.628906" xlink:href="#DejaVuSans-6f"/>
      <use x="780.810547" xlink:href="#DejaVuSans-72"/>
      <use x="821.923828" xlink:href="#DejaVuSans-20"/>
      <use x="853.710938" xlink:href="#DejaVuSans-53"/>
      <use x="917.1875" xlink:href="#DejaVuSans-42"/>
      <use x="985.791016" xlink:href="#DejaVuSans-31"/>
      <use x="1049.414062" xlink:href="#DejaVuSans-31"/>
      <use x="1113.037109" xlink:href="#DejaVuSans-31"/>
     </g>
    </g>
    <g id="LineCollection_6">
     <path d="M 632.935938 175.287187 
L 632.935938 165.287187 
" style="fill:none;stroke:#bfbf00;"/>
    </g>
    <g id="line2d_47">
     <path d="M 622.935938 170.287187 
L 642.935938 170.287187 
" style="fill:none;stroke:#bfbf00;stroke-linecap:square;"/>
    </g>
    <g id="line2d_48">
     <g>
      <use style="fill:#bfbf00;stroke:#bfbf00;" x="632.935938" xlink:href="#mad67c35bd0" y="170.287187"/>
     </g>
    </g>
    <g id="text_20">
     <!-- YFP intensity for SB111 -->
     <g transform="translate(650.935938 173.787187)scale(0.1 -0.1)">
      <use xlink:href="#DejaVuSans-59"/>
      <use x="61.083984" xlink:href="#DejaVuSans-46"/>
      <use x="118.603516" xlink:href="#DejaVuSans-50"/>
      <use x="178.90625" xlink:href="#DejaVuSans-20"/>
      <use x="210.693359" xlink:href="#DejaVuSans-69"/>
      <use x="238.476562" xlink:href="#DejaVuSans-6e"/>
      <use x="301.855469" xlink:href="#DejaVuSans-74"/>
      <use x="341.064453" xlink:href="#DejaVuSans-65"/>
      <use x="402.587891" xlink:href="#DejaVuSans-6e"/>
      <use x="465.966797" xlink:href="#DejaVuSans-73"/>
      <use x="518.066406" xlink:href="#DejaVuSans-69"/>
      <use x="545.849609" xlink:href="#DejaVuSans-74"/>
      <use x="585.058594" xlink:href="#DejaVuSans-79"/>
      <use x="644.238281" xlink:href="#DejaVuSans-20"/>
      <use x="676.025391" xlink:href="#DejaVuSans-66"/>
      <use x="711.230469" xlink:href="#DejaVuSans-6f"/>
      <use x="772.412109" xlink:href="#DejaVuSans-72"/>
      <use x="813.525391" xlink:href="#DejaVuSans-20"/>
      <use x="845.3125" xlink:href="#DejaVuSans-53"/>
      <use x="908.789062" xlink:href="#DejaVuSans-42"/>
      <use x="977.392578" xlink:href="#DejaVuSans-31"/>
      <use x="1041.015625" xlink:href="#DejaVuSans-31"/>
      <use x="1104.638672" xlink:href="#DejaVuSans-31"/>
     </g>
    </g>
   </g>
  </g>
 </g>
 <defs>
  <clipPath id="p3c07c2d6d5">
   <rect height="434.88" width="669.6" x="108" y="69.12"/>
  </clipPath>
 </defs>
</svg>
